<?xml version="1.0" encoding="UTF-8" standalone="no"?>
<svg
   xmlns:dc="http://purl.org/dc/elements/1.1/"
   xmlns:cc="http://creativecommons.org/ns#"
   xmlns:rdf="http://www.w3.org/1999/02/22-rdf-syntax-ns#"
   xmlns:svg="http://www.w3.org/2000/svg"
   xmlns="http://www.w3.org/2000/svg"
   xmlns:xlink="http://www.w3.org/1999/xlink"
   xmlns:sodipodi="http://sodipodi.sourceforge.net/DTD/sodipodi-0.dtd"
   xmlns:inkscape="http://www.inkscape.org/namespaces/inkscape"
   width="1000"
   height="800"
   viewBox="0 0 1000 800"
   id="svg7806"
   version="1.1"
   inkscape:version="0.47 r22583"
   sodipodi:docname="Feldhofer2.svg">
  <metadata
     id="metadata10302">
    <rdf:RDF>
      <cc:Work
         rdf:about="">
        <dc:format>image/svg+xml</dc:format>
        <dc:type
           rdf:resource="http://purl.org/dc/dcmitype/StillImage" />
      </cc:Work>
    </rdf:RDF>
  </metadata>
  <sodipodi:namedview
     pagecolor="#ffffff"
     bordercolor="#666666"
     borderopacity="1"
     objecttolerance="10"
     gridtolerance="10"
     guidetolerance="10"
     inkscape:pageopacity="0"
     inkscape:pageshadow="2"
     inkscape:window-width="1680"
     inkscape:window-height="995"
     id="namedview10300"
     showgrid="false"
     inkscape:zoom="0.595"
     inkscape:cx="435.74141"
     inkscape:cy="464.3134"
     inkscape:window-x="-4"
     inkscape:window-y="-3"
     inkscape:window-maximized="1"
     inkscape:current-layer="svg7806" />
  <desc
     id="desc7808">Produced by GNUPLOT 4.2 patchlevel 6  </desc>
  <defs
     id="defs7810">
    <inkscape:perspective
       sodipodi:type="inkscape:persp3d"
       inkscape:vp_x="0 : 400 : 1"
       inkscape:vp_y="0 : 1000 : 0"
       inkscape:vp_z="1000 : 400 : 1"
       inkscape:persp3d-origin="500 : 266.66667 : 1"
       id="perspective10304" />
    <circle
       id="gpDot"
       r="0.5"
       stroke-width="0.5" />
    <path
       id="gpPt0"
       stroke-width="0.222"
       stroke="currentColor"
       d="M-1,0 h2 M0,-1 v2" />
    <path
       id="gpPt1"
       stroke-width="0.222"
       stroke="currentColor"
       d="M-1,-1 L1,1 M1,-1 L-1,1" />
    <path
       id="gpPt2"
       stroke-width="0.222"
       stroke="currentColor"
       d="M-1,0 L1,0 M0,-1 L0,1 M-1,-1 L1,1 M-1,1 L1,-1" />
    <rect
       id="gpPt3"
       stroke-width="0.222"
       stroke="currentColor"
       x="-1"
       y="-1"
       width="2"
       height="2" />
    <rect
       id="gpPt4"
       stroke-width="0.222"
       stroke="currentColor"
       fill="currentColor"
       x="-1"
       y="-1"
       width="2"
       height="2" />
    <circle
       id="gpPt5"
       stroke-width="0.222"
       stroke="currentColor"
       cx="0"
       cy="0"
       r="1" />
    <use
       xlink:href="#gpPt5"
       id="gpPt6"
       fill="currentColor"
       stroke="none" />
    <path
       id="gpPt7"
       stroke-width="0.222"
       stroke="currentColor"
       d="M0,-1.33 L-1.33,0.67 L1.33,0.67 z" />
    <use
       xlink:href="#gpPt7"
       id="gpPt8"
       fill="currentColor"
       stroke="none" />
    <use
       xlink:href="#gpPt7"
       id="gpPt9"
       stroke="currentColor"
       transform="rotate(180)" />
    <use
       xlink:href="#gpPt9"
       id="gpPt10"
       fill="currentColor"
       stroke="none" />
    <use
       xlink:href="#gpPt3"
       id="gpPt11"
       stroke="currentColor"
       transform="rotate(45)" />
    <use
       xlink:href="#gpPt11"
       id="gpPt12"
       fill="currentColor"
       stroke="none" />
  </defs>
  <g
     style="fill:none; color:white; stroke:currentColor; stroke-width:1.00; stroke-linecap:butt; stroke-linejoin:miter"
     id="g7826" />
  <g
     style="fill:none; color:black; stroke:currentColor; stroke-width:1.00; stroke-linecap:butt; stroke-linejoin:miter"
     id="g7828">
    <path
       d="M80.2,652.4 L89.2,652.4 "
       id="path7830" />
    <g
       transform="translate(71.9,656.9)"
       style="stroke:none; fill:black; font-family:Arial; font-size:12.00pt; text-anchor:end"
       id="g7832">
      <text
         id="text7834">
        <tspan
           id="tspan7836">-15</tspan>
      </text>
    </g>
    <path
       d="M80.2,592.6 L89.2,592.6 "
       id="path7838" />
    <g
       transform="translate(71.9,597.1)"
       style="stroke:none; fill:black; font-family:Arial; font-size:12.00pt; text-anchor:end"
       id="g7840">
      <text
         id="text7842">
        <tspan
           id="tspan7844">-10</tspan>
      </text>
    </g>
    <path
       d="M80.2,532.7 L89.2,532.7 "
       id="path7846" />
    <g
       transform="translate(71.9,537.2)"
       style="stroke:none; fill:black; font-family:Arial; font-size:12.00pt; text-anchor:end"
       id="g7848">
      <text
         id="text7850">
        <tspan
           id="tspan7852">-5</tspan>
      </text>
    </g>
    <path
       d="M80.2,472.9 L89.2,472.9 "
       id="path7854" />
    <g
       transform="translate(71.9,477.4)"
       style="stroke:none; fill:black; font-family:Arial; font-size:12.00pt; text-anchor:end"
       id="g7856">
      <text
         id="text7858">
        <tspan
           id="tspan7860"> 0</tspan>
      </text>
    </g>
    <path
       d="M80.2,413.0 L89.2,413.0 "
       id="path7862" />
    <g
       transform="translate(71.9,417.5)"
       style="stroke:none; fill:black; font-family:Arial; font-size:12.00pt; text-anchor:end"
       id="g7864">
      <text
         id="text7866">
        <tspan
           id="tspan7868"> 5</tspan>
      </text>
    </g>
    <path
       d="M80.2,353.2 L89.2,353.2 "
       id="path7870" />
    <g
       transform="translate(71.9,357.7)"
       style="stroke:none; fill:black; font-family:Arial; font-size:12.00pt; text-anchor:end"
       id="g7872">
      <text
         id="text7874">
        <tspan
           id="tspan7876"> 10</tspan>
      </text>
    </g>
    <path
       d="M80.2,293.4 L89.2,293.4 "
       id="path7878" />
    <g
       transform="translate(71.9,297.9)"
       style="stroke:none; fill:black; font-family:Arial; font-size:12.00pt; text-anchor:end"
       id="g7880">
      <text
         id="text7882">
        <tspan
           id="tspan7884"> 15</tspan>
      </text>
    </g>
    <path
       d="M80.2,233.5 L89.2,233.5 "
       id="path7886" />
    <g
       transform="translate(71.9,238.0)"
       style="stroke:none; fill:black; font-family:Arial; font-size:12.00pt; text-anchor:end"
       id="g7888">
      <text
         id="text7890">
        <tspan
           id="tspan7892"> 20</tspan>
      </text>
    </g>
    <path
       d="M80.2,173.7 L89.2,173.7 "
       id="path7894" />
    <g
       transform="translate(71.9,178.2)"
       style="stroke:none; fill:black; font-family:Arial; font-size:12.00pt; text-anchor:end"
       id="g7896">
      <text
         id="text7898">
        <tspan
           id="tspan7900"> 25</tspan>
      </text>
    </g>
    <path
       d="M80.2,113.8 L89.2,113.8 "
       id="path7902" />
    <g
       transform="translate(71.9,118.3)"
       style="stroke:none; fill:black; font-family:Arial; font-size:12.00pt; text-anchor:end"
       id="g7904">
      <text
         id="text7906">
        <tspan
           id="tspan7908"> 30</tspan>
      </text>
    </g>
    <path
       d="M80.2,54.0 L89.2,54.0 "
       id="path7910" />
    <g
       transform="translate(71.9,58.5)"
       style="stroke:none; fill:black; font-family:Arial; font-size:12.00pt; text-anchor:end"
       id="g7912">
      <text
         id="text7914">
        <tspan
           id="tspan7916"> 35</tspan>
      </text>
    </g>
  </g>
  <g
     style="fill:none; color:gray; stroke:currentColor; stroke-width:1.00; stroke-linecap:butt; stroke-linejoin:miter"
     id="g7918">
    <path
       d="M80.2,652.4 L80.2,54.0 "
       id="path7920" />
  </g>
  <g
     style="fill:none; color:black; stroke:currentColor; stroke-width:1.00; stroke-linecap:butt; stroke-linejoin:miter"
     id="g7922">
    <path
       d="M80.2,652.4 L80.2,643.4 "
       id="path7924" />
    <g
       transform="translate(80.2,674.9)"
       style="stroke:none; fill:black; font-family:Arial; font-size:12.00pt; text-anchor:middle"
       id="g7926">
      <text
         id="text7928">
        <tspan
           id="tspan7930"> 0</tspan>
      </text>
    </g>
  </g>
  <g
     style="fill:none; color:gray; stroke:currentColor; stroke-width:1.00; stroke-linecap:butt; stroke-linejoin:miter"
     id="g7932">
    <path
       d="M185.1,652.4 L185.1,54.0 "
       id="path7934" />
  </g>
  <g
     style="fill:none; color:black; stroke:currentColor; stroke-width:1.00; stroke-linecap:butt; stroke-linejoin:miter"
     id="g7936">
    <path
       d="M185.1,652.4 L185.1,643.4 "
       id="path7938" />
    <g
       transform="translate(185.1,674.9)"
       style="stroke:none; fill:black; font-family:Arial; font-size:12.00pt; text-anchor:middle"
       id="g7940">
      <text
         id="text7942">
        <tspan
           id="tspan7944"> 5000</tspan>
      </text>
    </g>
  </g>
  <g
     style="fill:none; color:gray; stroke:currentColor; stroke-width:1.00; stroke-linecap:butt; stroke-linejoin:miter"
     id="g7946">
    <path
       d="M290.1,652.4 L290.1,54.0 "
       id="path7948" />
  </g>
  <g
     style="fill:none; color:black; stroke:currentColor; stroke-width:1.00; stroke-linecap:butt; stroke-linejoin:miter"
     id="g7950">
    <path
       d="M290.1,652.4 L290.1,643.4 "
       id="path7952" />
    <g
       transform="translate(290.1,674.9)"
       style="stroke:none; fill:black; font-family:Arial; font-size:12.00pt; text-anchor:middle"
       id="g7954">
      <text
         id="text7956">
        <tspan
           id="tspan7958"> 10000</tspan>
      </text>
    </g>
  </g>
  <g
     style="fill:none; color:gray; stroke:currentColor; stroke-width:1.00; stroke-linecap:butt; stroke-linejoin:miter"
     id="g7960">
    <path
       d="M395.0,652.4 L395.0,54.0 "
       id="path7962" />
  </g>
  <g
     style="fill:none; color:black; stroke:currentColor; stroke-width:1.00; stroke-linecap:butt; stroke-linejoin:miter"
     id="g7964">
    <path
       d="M395.0,652.4 L395.0,643.4 "
       id="path7966" />
    <g
       transform="translate(395.0,674.9)"
       style="stroke:none; fill:black; font-family:Arial; font-size:12.00pt; text-anchor:middle"
       id="g7968">
      <text
         id="text7970">
        <tspan
           id="tspan7972"> 15000</tspan>
      </text>
    </g>
  </g>
  <g
     style="fill:none; color:gray; stroke:currentColor; stroke-width:1.00; stroke-linecap:butt; stroke-linejoin:miter"
     id="g7974">
    <path
       d="M500.0,652.4 L500.0,54.0 "
       id="path7976" />
  </g>
  <g
     style="fill:none; color:black; stroke:currentColor; stroke-width:1.00; stroke-linecap:butt; stroke-linejoin:miter"
     id="g7978">
    <path
       d="M500.0,652.4 L500.0,643.4 "
       id="path7980" />
    <g
       transform="translate(500.0,674.9)"
       style="stroke:none; fill:black; font-family:Arial; font-size:12.00pt; text-anchor:middle"
       id="g7982">
      <text
         id="text7984">
        <tspan
           id="tspan7986"> 20000</tspan>
      </text>
    </g>
  </g>
  <g
     style="fill:none; color:gray; stroke:currentColor; stroke-width:1.00; stroke-linecap:butt; stroke-linejoin:miter"
     id="g7988">
    <path
       d="M604.9,652.4 L604.9,54.0 "
       id="path7990" />
  </g>
  <g
     style="fill:none; color:black; stroke:currentColor; stroke-width:1.00; stroke-linecap:butt; stroke-linejoin:miter"
     id="g7992">
    <path
       d="M604.9,652.4 L604.9,643.4 "
       id="path7994" />
    <g
       transform="translate(604.9,674.9)"
       style="stroke:none; fill:black; font-family:Arial; font-size:12.00pt; text-anchor:middle"
       id="g7996">
      <text
         id="text7998">
        <tspan
           id="tspan8000"> 25000</tspan>
      </text>
    </g>
  </g>
  <g
     style="fill:none; color:gray; stroke:currentColor; stroke-width:1.00; stroke-linecap:butt; stroke-linejoin:miter"
     id="g8002">
    <path
       d="M709.8,652.4 L709.8,54.0 "
       id="path8004" />
  </g>
  <g
     style="fill:none; color:black; stroke:currentColor; stroke-width:1.00; stroke-linecap:butt; stroke-linejoin:miter"
     id="g8006">
    <path
       d="M709.8,652.4 L709.8,643.4 "
       id="path8008" />
    <g
       transform="translate(709.8,674.9)"
       style="stroke:none; fill:black; font-family:Arial; font-size:12.00pt; text-anchor:middle"
       id="g8010">
      <text
         id="text8012">
        <tspan
           id="tspan8014"> 30000</tspan>
      </text>
    </g>
  </g>
  <g
     style="fill:none; color:gray; stroke:currentColor; stroke-width:1.00; stroke-linecap:butt; stroke-linejoin:miter"
     id="g8016">
    <path
       d="M814.8,652.4 L814.8,54.0 "
       id="path8018" />
  </g>
  <g
     style="fill:none; color:black; stroke:currentColor; stroke-width:1.00; stroke-linecap:butt; stroke-linejoin:miter"
     id="g8020">
    <path
       d="M814.8,652.4 L814.8,643.4 "
       id="path8022" />
    <g
       transform="translate(814.8,674.9)"
       style="stroke:none; fill:black; font-family:Arial; font-size:12.00pt; text-anchor:middle"
       id="g8024">
      <text
         id="text8026">
        <tspan
           id="tspan8028"> 35000</tspan>
      </text>
    </g>
  </g>
  <g
     style="fill:none; color:gray; stroke:currentColor; stroke-width:1.00; stroke-linecap:butt; stroke-linejoin:miter"
     id="g8030">
    <path
       d="M919.7,652.4 L919.7,54.0 "
       id="path8032" />
  </g>
  <g
     style="fill:none; color:black; stroke:currentColor; stroke-width:1.00; stroke-linecap:butt; stroke-linejoin:miter"
     id="g8034">
    <path
       d="M919.7,652.4 L919.7,643.4 "
       id="path8036" />
    <g
       transform="translate(919.7,674.9)"
       style="stroke:none; fill:black; font-family:Arial; font-size:12.00pt; text-anchor:middle"
       id="g8038">
      <text
         id="text8040">
        <tspan
           id="tspan8042"> 40000</tspan>
      </text>
    </g>
  </g>
  <g
     style="fill:none; color:gray; stroke:currentColor; stroke-width:1.00; stroke-linecap:butt; stroke-linejoin:miter"
     id="g8044">
    <path
       d="M80.2,652.4 L919.7,652.4 "
       id="path8046" />
  </g>
  <g
     style="fill:none; color:black; stroke:currentColor; stroke-width:1.00; stroke-linecap:butt; stroke-linejoin:miter"
     id="g8048">
    <path
       d="M919.7,652.4 L910.7,652.4 "
       id="path8050" />
    <g
       transform="translate(928.0,656.9)"
       style="stroke:none; fill:black; font-family:Arial; font-size:12.00pt; text-anchor:start"
       id="g8052">
      <text
         id="text8054">
        <tspan
           id="tspan8056">-16</tspan>
      </text>
    </g>
  </g>
  <g
     style="fill:none; color:gray; stroke:currentColor; stroke-width:1.00; stroke-linecap:butt; stroke-linejoin:miter"
     id="g8058">
    <path
       d="M80.2,592.6 L919.7,592.6 "
       id="path8060" />
  </g>
  <g
     style="fill:none; color:black; stroke:currentColor; stroke-width:1.00; stroke-linecap:butt; stroke-linejoin:miter"
     id="g8062">
    <path
       d="M919.7,592.6 L910.7,592.6 "
       id="path8064" />
    <g
       transform="translate(928.0,597.1)"
       style="stroke:none; fill:black; font-family:Arial; font-size:12.00pt; text-anchor:start"
       id="g8066">
      <text
         id="text8068">
        <tspan
           id="tspan8070">-14</tspan>
      </text>
    </g>
  </g>
  <g
     style="fill:none; color:gray; stroke:currentColor; stroke-width:1.00; stroke-linecap:butt; stroke-linejoin:miter"
     id="g8072">
    <path
       d="M80.2,532.7 L919.7,532.7 "
       id="path8074" />
  </g>
  <g
     style="fill:none; color:black; stroke:currentColor; stroke-width:1.00; stroke-linecap:butt; stroke-linejoin:miter"
     id="g8076">
    <path
       d="M919.7,532.7 L910.7,532.7 "
       id="path8078" />
    <g
       transform="translate(928.0,537.2)"
       style="stroke:none; fill:black; font-family:Arial; font-size:12.00pt; text-anchor:start"
       id="g8080">
      <text
         id="text8082">
        <tspan
           id="tspan8084">-12</tspan>
      </text>
    </g>
  </g>
  <g
     style="fill:none; color:gray; stroke:currentColor; stroke-width:1.00; stroke-linecap:butt; stroke-linejoin:miter"
     id="g8086">
    <path
       d="M80.2,472.9 L919.7,472.9 "
       id="path8088" />
  </g>
  <g
     style="fill:none; color:black; stroke:currentColor; stroke-width:1.00; stroke-linecap:butt; stroke-linejoin:miter"
     id="g8090">
    <path
       d="M919.7,472.9 L910.7,472.9 "
       id="path8092" />
    <g
       transform="translate(928.0,477.4)"
       style="stroke:none; fill:black; font-family:Arial; font-size:12.00pt; text-anchor:start"
       id="g8094">
      <text
         id="text8096">
        <tspan
           id="tspan8098">-10</tspan>
      </text>
    </g>
  </g>
  <g
     style="fill:none; color:gray; stroke:currentColor; stroke-width:1.00; stroke-linecap:butt; stroke-linejoin:miter"
     id="g8100">
    <path
       d="M80.2,413.0 L919.7,413.0 "
       id="path8102" />
  </g>
  <g
     style="fill:none; color:black; stroke:currentColor; stroke-width:1.00; stroke-linecap:butt; stroke-linejoin:miter"
     id="g8104">
    <path
       d="M919.7,413.0 L910.7,413.0 "
       id="path8106" />
    <g
       transform="translate(928.0,417.5)"
       style="stroke:none; fill:black; font-family:Arial; font-size:12.00pt; text-anchor:start"
       id="g8108">
      <text
         id="text8110">
        <tspan
           id="tspan8112">-8</tspan>
      </text>
    </g>
  </g>
  <g
     style="fill:none; color:gray; stroke:currentColor; stroke-width:1.00; stroke-linecap:butt; stroke-linejoin:miter"
     id="g8114">
    <path
       d="M80.2,353.2 L919.7,353.2 "
       id="path8116" />
  </g>
  <g
     style="fill:none; color:black; stroke:currentColor; stroke-width:1.00; stroke-linecap:butt; stroke-linejoin:miter"
     id="g8118">
    <path
       d="M919.7,353.2 L910.7,353.2 "
       id="path8120" />
    <g
       transform="translate(928.0,357.7)"
       style="stroke:none; fill:black; font-family:Arial; font-size:12.00pt; text-anchor:start"
       id="g8122">
      <text
         id="text8124">
        <tspan
           id="tspan8126">-6</tspan>
      </text>
    </g>
  </g>
  <g
     style="fill:none; color:gray; stroke:currentColor; stroke-width:1.00; stroke-linecap:butt; stroke-linejoin:miter"
     id="g8128">
    <path
       d="M80.2,293.4 L919.7,293.4 "
       id="path8130" />
  </g>
  <g
     style="fill:none; color:black; stroke:currentColor; stroke-width:1.00; stroke-linecap:butt; stroke-linejoin:miter"
     id="g8132">
    <path
       d="M919.7,293.4 L910.7,293.4 "
       id="path8134" />
    <g
       transform="translate(928.0,297.9)"
       style="stroke:none; fill:black; font-family:Arial; font-size:12.00pt; text-anchor:start"
       id="g8136">
      <text
         id="text8138">
        <tspan
           id="tspan8140">-4</tspan>
      </text>
    </g>
  </g>
  <g
     style="fill:none; color:gray; stroke:currentColor; stroke-width:1.00; stroke-linecap:butt; stroke-linejoin:miter"
     id="g8142">
    <path
       d="M80.2,233.5 L919.7,233.5 "
       id="path8144" />
  </g>
  <g
     style="fill:none; color:black; stroke:currentColor; stroke-width:1.00; stroke-linecap:butt; stroke-linejoin:miter"
     id="g8146">
    <path
       d="M919.7,233.5 L910.7,233.5 "
       id="path8148" />
    <g
       transform="translate(928.0,238.0)"
       style="stroke:none; fill:black; font-family:Arial; font-size:12.00pt; text-anchor:start"
       id="g8150">
      <text
         id="text8152">
        <tspan
           id="tspan8154">-2</tspan>
      </text>
    </g>
  </g>
  <g
     style="fill:none; color:gray; stroke:currentColor; stroke-width:1.00; stroke-linecap:butt; stroke-linejoin:miter"
     id="g8156">
    <path
       d="M80.2,173.7 L919.7,173.7 "
       id="path8158" />
  </g>
  <g
     style="fill:none; color:black; stroke:currentColor; stroke-width:1.00; stroke-linecap:butt; stroke-linejoin:miter"
     id="g8160">
    <path
       d="M919.7,173.7 L910.7,173.7 "
       id="path8162" />
    <g
       transform="translate(928.0,178.2)"
       style="stroke:none; fill:black; font-family:Arial; font-size:12.00pt; text-anchor:start"
       id="g8164">
      <text
         id="text8166">
        <tspan
           id="tspan8168"> 0</tspan>
      </text>
    </g>
  </g>
  <g
     style="fill:none; color:gray; stroke:currentColor; stroke-width:1.00; stroke-linecap:butt; stroke-linejoin:miter"
     id="g8170">
    <path
       d="M80.2,113.8 L919.7,113.8 "
       id="path8172" />
  </g>
  <g
     style="fill:none; color:black; stroke:currentColor; stroke-width:1.00; stroke-linecap:butt; stroke-linejoin:miter"
     id="g8174">
    <path
       d="M919.7,113.8 L910.7,113.8 "
       id="path8176" />
    <g
       transform="translate(928.0,118.3)"
       style="stroke:none; fill:black; font-family:Arial; font-size:12.00pt; text-anchor:start"
       id="g8178">
      <text
         id="text8180">
        <tspan
           id="tspan8182"> 2</tspan>
      </text>
    </g>
  </g>
  <g
     style="fill:none; color:gray; stroke:currentColor; stroke-width:1.00; stroke-linecap:butt; stroke-linejoin:miter"
     id="g8184">
    <path
       d="M80.2,54.0 L919.7,54.0 "
       id="path8186" />
  </g>
  <g
     style="fill:none; color:black; stroke:currentColor; stroke-width:1.00; stroke-linecap:butt; stroke-linejoin:miter"
     id="g8188">
    <path
       d="M919.7,54.0 L910.7,54.0 "
       id="path8190" />
    <g
       transform="translate(928.0,58.5)"
       style="stroke:none; fill:black; font-family:Arial; font-size:12.00pt; text-anchor:start"
       id="g8192">
      <text
         id="text8194">
        <tspan
           id="tspan8196"> 4</tspan>
      </text>
    </g>
    <path
       d="M80.2,54.0 L80.2,652.4 L919.7,652.4 L919.7,54.0 L80.2,54.0 Z "
       id="path8198" />
    <g
       transform="translate(34.2,353.2) rotate(-90)"
       style="stroke:none; fill:black; font-family:Arial; font-size:12.00pt; text-anchor:middle"
       id="g8200">
      <text
         id="text8202">
        <tspan
           id="tspan8204">abs. temp/deg C</tspan>
      </text>
    </g>
    <g
       transform="translate(974.6,353.2) rotate(-90)"
       style="stroke:none; fill:black; font-family:Arial; font-size:12.00pt; text-anchor:middle"
       id="g8206">
      <text
         id="text8208">
        <tspan
           id="tspan8210">rel. temp/deg C</tspan>
      </text>
    </g>
    <g
       transform="translate(499.9,701.9)"
       style="stroke:none; fill:black; font-family:Arial; font-size:12.00pt; text-anchor:middle"
       id="g8212">
      <text
         id="text8214">
        <tspan
           id="tspan8216">years bp.</tspan>
      </text>
    </g>
    <g
       transform="translate(499.9,31.5)"
       style="stroke:none; fill:black; font-family:Arial; font-size:12.00pt; text-anchor:middle"
       id="g8218">
      <text
         id="text8220">
        <tspan
           id="tspan8222">Feldhofer 2</tspan>
      </text>
    </g>
  </g>
  <g
     style="fill:none; color:red; stroke:currentColor; stroke-width:1.00; stroke-linecap:butt; stroke-linejoin:miter"
     id="g8224" />
  <g
     style="fill:none; color:black; stroke:currentColor; stroke-width:1.00; stroke-linecap:butt; stroke-linejoin:miter"
     id="g8226">
    <g
       transform="translate(536.7,732.5)"
       style="stroke:none; fill:black; font-family:Arial; font-size:12.00pt; text-anchor:end"
       id="g8228">
      <text
         id="text8230">
        <tspan
           id="tspan8232">[0] Local surface annual temperature ranges/deg C abs.</tspan>
      </text>
    </g>
  </g>
  <g
     style="fill:none; color:red; stroke:currentColor; stroke-width:1.00; stroke-linecap:butt; stroke-linejoin:miter"
     id="g8234">
    <g
       style="stroke:none; shape-rendering:crispEdges"
       id="g8236">
      <polygon
         points="545.0,732.5 545.0,723.5 587.2,723.5 587.2,732.5 "
         id="polygon8238"
         fill="rgb(111, 203, 227)" />
    </g>
    <path
       d="M545.0,732.5 L587.2,732.5 L587.2,723.5 L545.0,723.5 L545.0,732.5 Z "
       id="path8240"
       stroke="rgb(111, 203, 227)" />
    <path
       style="fill:#6fcbe3;stroke:none;fill-opacity:0.61751151"
       d="m 90.4062,107 -1.7187,6 -1.5937,2.40625 -1.6876,2 -1.5937,2.09375 -1.625,17.40625 0,366.90625 1.625,-20.71875 1.5937,-2.40625 1.6876,-2.375 1.5937,-2.8125 1.7187,-7.3125 1.5938,21.40625 1.5938,14 1.7187,-0.28125 1.5937,-0.3125 1.5938,-0.5 1.6875,-0.5 1.625,-0.40625 1.6875,-0.28125 1.5938,-0.21875 1.5937,-0.28125 1.7187,-0.3125 1.5938,-0.3125 1.5938,-0.28125 1.7187,-0.21875 1.5937,-0.0937 1.6876,-0.28125 1.5937,-0.625 1.625,-0.375 1.6875,-0.21875 1.5938,0 1.5937,0 1.7187,0.0937 1.5938,0.125 1.5938,0.0937 1.7187,0.1875 1.5937,0.0937 1.6876,0.21875 1.5937,0.1875 1.625,0 1.6875,0.0937 1.5938,0 1.5937,-0.0937 1.7187,0 1.5938,0 1.6875,0.21875 1.625,0.0937 1.5937,0.28125 1.6876,0.3125 1.5937,0.5 1.625,0.5 1.6875,0.59375 1.5938,0.71875 1.7187,0.78125 1.5937,0.90625 1.5938,0.90625 1.6875,0.6875 1.625,0.71875 1.5937,0.6875 1.6876,0.6875 1.5937,0.40625 1.625,0.3125 1.6875,0.28125 1.5938,0.21875 1.7187,0 1.5937,-0.21875 1.5938,-0.1875 1.6875,-0.5 1.625,-0.6875 1.5937,-0.5 1.6876,-0.625 1.5937,-0.5 1.7187,-0.59375 1.5938,-0.5 1.5938,-0.5 1.7187,-0.5 1.5937,-0.40625 1.5938,-0.0937 1.6875,-0.0937 1.625,0.1875 1.5937,0.3125 1.6876,0.3125 1.5937,0.375 1.7187,0.625 1.5938,0.6875 1.5938,0.8125 1.7187,0.875 1.5937,0.71875 1.5938,0.90625 1.6875,0.875 1.625,0.90625 1.6875,0.8125 1.5938,0.78125 1.5937,0.90625 1.7187,0.71875 1.5938,0.6875 1.5938,0.8125 1.7187,0.59375 1.5937,0.5 1.6876,0.5 1.5937,0.5 1.625,0.40625 L 241,518 l 1.5938,0.40625 1.5937,0.40625 1.7187,0.28125 1.5938,0.0937 1.5938,0 1.7187,-0.0937 1.5937,-0.1875 1.6876,-0.21875 1.5937,-0.375 1.625,-0.5 1.6875,-0.40625 1.5938,-0.59375 1.5937,-0.8125 1.7187,-0.90625 1.5938,-0.90625 1.6875,-1.09375 1.625,-1.09375 1.5937,-0.90625 1.6876,-0.90625 1.5937,-0.6875 1.625,-0.6875 1.6875,-0.5 1.5938,-0.3125 1.7187,-0.0937 1.5937,0 1.5938,0.28125 1.6875,0.625 1.625,0.6875 1.5937,0.90625 1.6876,1.09375 1.5937,1.09375 1.625,1.40625 1.6875,1.5 1.5938,1.59375 1.7187,1.40625 1.5937,1.1875 1.5938,1.3125 1.6875,1.1875 1.625,1 1.5937,0.90625 1.6876,0.90625 1.5937,1 1.7187,1.09375 1.5938,1.5 1.5938,1.21875 1.7187,1.1875 1.5937,1.09375 1.5938,0.90625 1.6875,0.59375 1.625,0.5 1.6875,0.59375 1.5938,0.5 1.5937,0.21875 1.7187,0.5 1.5938,0.5 1.5938,0.59375 1.7187,0.6875 1.5937,0.90625 1.5938,0.8125 1.6875,0.90625 1.625,1.09375 1.6875,1 1.5938,0.90625 1.5937,0.6875 1.7187,0.59375 L 349,545 l 1.5938,1 1.7187,1.09375 1.5937,1.3125 1.6876,1.5 1.5937,1.5 1.625,1.59375 1.6875,1.3125 1.5938,1.28125 1.5937,1.3125 1.7187,1.09375 1.5938,1 1.6875,0.8125 1.625,0.6875 1.5937,0.6875 1.6876,0.90625 1.5937,0.90625 1.625,0.90625 L 378.5,565 l 1.5938,1 1.5937,1 1.7187,1.09375 1.5938,1.21875 1.6875,1.28125 1.625,1.09375 1.5937,1.125 1.6876,1.09375 1.5937,1.09375 1.625,1.59375 1.6875,1.5 1.5938,1.5 1.7187,1.40625 1.5937,1.5 1.5938,1.59375 1.6875,1.40625 1.625,1.40625 1.5937,1.40625 1.6876,1.375 1.5937,1.71875 1.7187,1.59375 1.5938,1.6875 1.5938,2 1.7187,2.125 1.5937,1.875 1.5938,1.71875 1.6875,1.6875 1.625,1.71875 1.5937,1.5 1.6876,1.5 1.5937,1.5 1.7187,1.28125 1.5938,1.09375 1.5938,0.8125 1.7187,1 1.5937,1.3125 1.5938,1.28125 1.6875,1.21875 1.625,1.28125 L 444,621 l 1.5938,1.3125 1.5937,1.375 1.7187,1.5 1.5938,1.5 1.5938,1.40625 1.7187,1.5 1.5937,1.09375 1.6876,1.5 1.5937,1.5 1.625,1.625 1.6875,1.5 1.5938,1.375 1.5937,1.40625 1.7187,1.40625 1.5938,1.09375 1.5938,1 1.7187,1 1.5937,0.71875 1.6876,0.5 1.5937,0.5 1.625,0.78125 1.6875,0.8125 1.5938,0.90625 1.5937,0.875 1.7187,0.625 1.5938,0.5 1.6875,0.375 1.625,0.21875 1.5937,0 1.6876,0 1.5937,-0.0937 1.625,-0.3125 1.6875,-0.6875 1.5938,-0.40625 1.7187,-0.5 1.5937,-0.5 1.5938,-0.59375 1.6875,-0.71875 1.625,-0.6875 1.5937,-0.59375 1.6876,-0.625 1.5937,-0.59375 1.625,-0.40625 1.6875,-0.375 1.5938,-0.625 1.7187,-0.59375 1.5937,0 1.5938,0 1.6875,0 1.625,0.0937 1.5937,0.21875 1.6876,0.0937 1.5937,-0.0937 1.7187,-0.0937 1.5938,0 1.5938,0 1.7187,-0.40625 1.5937,-0.59375 1.5938,-0.625 1.6875,-0.375 1.625,-0.5 1.6875,-0.625 1.5938,-0.5 1.5937,-0.28125 1.7187,-0.0937 1.5938,-0.21875 1.5938,-0.40625 1.7187,-0.375 1.5937,-0.21875 1.5938,-0.1875 1.6875,-0.21875 1.625,0 1.6875,0.125 1.5938,0.0937 1.5937,0.1875 1.7187,0 1.5938,0 1.5938,-0.28125 1.7187,-0.21875 1.5937,-0.5 1.6876,-0.40625 1.5937,-0.375 1.625,-0.90625 1.6875,-1.09375 1.5938,-1.125 1.5937,-1 1.7187,-1 1.5938,-0.78125 1.6875,-1 1.625,-0.71875 1.5937,-0.59375 1.6876,-0.59375 1.5937,-0.5 1.625,-0.3125 1.6875,-0.1875 1.5938,-0.1875 1.5937,-0.3125 1.7187,-0.1875 1.5938,-0.125 1.6875,0 1.625,-0.0937 1.5937,-0.0937 1.6876,-0.0937 1.5937,0 1.625,0 1.6875,-0.0937 1.5938,0 1.7187,0 1.5937,-0.125 1.5938,-0.1875 1.6875,-0.3125 1.625,-0.1875 1.5937,-0.0937 1.6876,-0.3125 1.5937,-0.40625 1.7187,-0.28125 1.5938,-0.0937 1.5938,-0.125 1.7187,-0.0937 1.5937,-0.0937 1.5938,-0.1875 1.6875,-0.21875 1.625,-0.40625 1.5937,-0.375 1.6876,-0.40625 1.5937,-0.40625 1.7187,-0.40625 1.5938,-0.40625 1.5938,-0.28125 1.7187,-0.3125 1.5937,0 1.5938,0 1.6875,0 1.625,0.0937 1.6875,0.21875 1.5938,0.40625 1.5937,0.375 1.7187,0.625 1.5938,0.59375 1.5938,0.6875 1.7187,0.8125 1.5937,0.78125 1.5938,0.71875 1.6875,0.78125 1.625,0.8125 1.6875,0.6875 1.5938,0.625 1.5937,0.78125 1.7187,0.59375 1.5938,0.40625 1.5938,0.3125 1.7187,0.1875 1.5937,0.21875 1.6876,0.1875 1.5937,0.1875 1.625,0.125 1.6875,0.1875 1.5938,0.0937 1.5937,0.0937 1.7187,0.21875 1.5938,0.28125 1.6875,-0.0937 1.625,-0.0937 1.5937,-0.0937 1.6876,-0.21875 1.5937,-0.1875 1.625,-0.1875 L 719,630 l 1.5938,-0.40625 1.5937,-0.28125 1.7187,-0.625 1.5938,-0.78125 1.6875,-0.71875 1.625,-0.5 1.5937,-0.875 1.6876,-0.8125 1.5937,-0.90625 1.625,-0.90625 L 737,622.59375 738.5938,622 l 1.7187,-0.5 1.5937,-0.5 1.5938,-0.3125 1.6875,-0.28125 1.625,-0.0937 1.5937,-0.125 1.6876,0.125 1.5937,0.1875 1.7187,0 1.5938,0.1875 1.5938,0.3125 1.7187,0 1.5937,0.0937 1.5938,0.0937 1.6875,-0.1875 1.625,-0.1875 1.5937,-0.125 1.6876,-0.1875 1.5937,0 1.7187,0 1.5938,0 1.5938,0 1.7187,0.0937 1.5937,0.0937 1.5938,0.21875 1.6875,0.0937 1.625,0.0937 1.6875,0.3125 1.5938,0.28125 1.5937,0.125 1.7187,0.1875 1.5938,0 1.5938,0 1.7187,-0.0937 1.5937,-0.0937 1.6876,-0.21875 1.5937,-0.1875 1.625,-0.21875 1.6875,-0.1875 1.5938,0 1.5937,0.0937 1.7187,0 1.5938,0.0937 1.5938,0.125 1.7187,0.28125 1.5937,0.0937 1.6876,0.125 1.5937,0.0937 1.625,0 1.6875,-0.0937 1.5938,0 1.5937,-0.21875 1.7187,-0.40625 1.5938,-0.375 1.6875,-0.625 1.625,-0.6875 1.5937,-1 1.6876,-0.90625 1.5937,-1.28125 1.625,-1.40625 1.6875,-1.40625 1.5938,-1.3125 1.7187,-1.09375 1.5937,-1 1.5938,-0.78125 1.6875,-0.625 1.625,-0.59375 1.5937,-0.5 1.6876,-0.1875 1.5937,-0.0937 1.625,0 1.6875,-0.125 1.5938,0.125 1.7187,0 1.5937,-0.125 1.5938,-0.0937 1.6875,-0.1875 1.625,-0.21875 1.5937,-0.28125 1.6876,-0.21875 1.5937,-0.1875 1.7187,-0.0937 1.5938,0 1.5938,0.0937 1.7187,0 1.5937,0.1875 1.5938,0.3125 1.6875,0.40625 1.625,0.5 L 886,608 l 1.5938,0.40625 1.5937,0.28125 1.7187,0.5 1.5938,0.5 1.5938,0.40625 1.7187,0.5 1.5937,0.5 L 899,611.5 l 1.6875,0.1875 1.625,0.3125 0,-384.1875 -1.625,-0.21875 L 899,227.40625 897.4062,227 895.8125,226.59375 894.0938,226.1875 892.5,225.90625 890.9062,225.5 889.1875,225.09375 887.5938,224.8125 886,224.5 884.3125,224 882.6875,223.59375 881,223.1875 879.4062,223 l -1.5937,-0.1875 -1.7187,0 -1.5938,-0.125 -1.5938,0 -1.7187,0.125 -1.5937,0.0937 -1.6876,0.28125 -1.5937,0.125 -1.625,0.1875 -1.6875,0.1875 -1.5938,0.125 -1.5937,0.0937 -1.7187,0 -1.5938,-0.0937 -1.6875,0.0937 -1.625,0 -1.5937,0 -1.6876,0.28125 -1.5937,0.40625 -1.625,0.5 -1.6875,0.5 -1.5938,0.59375 -1.5937,0.90625 -1.7187,0.90625 -1.5938,1.09375 -1.6875,1.21875 -1.625,1.1875 -1.5937,1 -1.6876,0.8125 -1.5937,0.78125 -1.625,0.71875 -1.6875,0.375 -1.5938,0.40625 -1.7187,0.3125 -1.5937,0.1875 -1.5938,0 -1.6875,0 -1.625,0.0937 -1.5937,-0.0937 -1.6876,-0.0937 -1.5937,-0.0937 -1.7187,-0.21875 L 809,235.5 l -1.5938,0 -1.7187,0 -1.5937,-0.0937 -1.5938,0 -1.6875,0.1875 -1.625,0.21875 -1.5937,0.0937 -1.6876,0.1875 -1.5937,0.0937 -1.7187,0 -1.5938,0 -1.5938,0 -1.7187,-0.0937 -1.5937,-0.0937 -1.5938,-0.1875 -1.6875,-0.3125 -1.625,-0.0937 -1.6875,-0.0937 -1.5938,-0.125 -1.5937,-0.0937 -1.7187,-0.0937 -1.5938,0 -1.5938,0 -1.7187,0 -1.5937,0 -1.6876,0.0937 -1.5937,0.0937 -1.625,0.21875 -1.6875,0.0937 -1.5938,0 -1.5937,-0.0937 -1.7187,0 L 755,235.1875 753.4062,235 l -1.7187,0 -1.5937,-0.1875 -1.6876,0 -1.5937,0 -1.625,0.0937 -1.6875,0.1875 -1.5938,0.3125 -1.5937,0.40625 -1.7187,0.5 -1.5938,0.5 -1.6875,0.5 -1.625,0.6875 -1.5937,0.8125 -1.6876,0.6875 -1.5937,0.6875 -1.625,0.40625 -1.6875,0.59375 -1.5938,0.71875 -1.7187,0.5 -1.5937,0.28125 L 719,243 l -1.6875,0.1875 -1.625,0.21875 -1.5937,0.1875 -1.6876,0.0937 -1.5937,0.125 -1.625,0.0937 -1.6875,0.0937 -1.5938,-0.3125 -1.7187,-0.0937 -1.5937,-0.0937 -1.5938,-0.0937 -1.6875,-0.21875 -1.625,0 -1.5937,-0.1875 -1.6876,-0.1875 -1.5937,-0.125 -1.7187,-0.1875 -1.5938,-0.3125 -1.5938,-0.375 -1.7187,-0.40625 -1.5937,-0.71875 -1.5938,-0.5 -1.6875,-0.59375 -1.625,-0.6875 -1.6875,-0.59375 -1.5938,-0.625 -1.5937,-0.6875 -1.7187,-0.59375 -1.5938,-0.71875 -1.5938,-0.5 -1.7187,-0.5 -1.5937,-0.28125 -1.5938,-0.3125 -1.6875,-0.1875 -1.625,-0.0937 -1.6875,0 -1.5938,0 -1.5937,0 -1.7187,0.28125 -1.5938,0.21875 -1.5938,0.28125 -1.7187,0.40625 -1.5937,0.40625 -1.6876,0.28125 -1.5937,0.3125 -1.625,0.3125 -1.6875,0.1875 -1.5938,0.1875 -1.5937,0.125 -1.7187,0 -1.5938,0.0937 -1.5938,0.0937 -1.7187,0.3125 -1.5937,0.28125 -1.6876,0.21875 -1.5937,0.1875 -1.625,0.0937 -1.6875,0.21875 -1.5938,0.1875 -1.5937,0.0937 -1.7187,0 -1.5938,0 -1.6875,0.0937 -1.625,0 -1.5937,0 -1.6876,0.125 -1.5937,0.0937 -1.625,0 -1.6875,0 -1.5938,0.0937 -1.7187,0.1875 -1.5937,0.3125 -1.5938,0.0937 -1.6875,0.0937 -1.625,0.3125 -1.5937,0.40625 -1.6876,0.5 -1.5937,0.59375 -1.625,0.59375 -1.6875,0.8125 -1.5938,0.6875 -1.7187,0.8125 -1.5937,0.90625 -1.5938,0.78125 -1.6875,1 -1.625,0.71875 -1.5937,0.375 -1.6876,0.3125 -1.5937,0.40625 -1.7187,0.1875 -1.5938,0.21875 -1.5938,0.0937 -1.7187,0 -1.5937,-0.21875 -1.5938,-0.0937 -1.6875,-0.0937 -1.625,0 -1.6875,0.1875 -1.5938,0.125 -1.5937,0.28125 -1.7187,0.3125 -1.5938,0.28125 -1.5938,0.21875 -1.7187,0.0937 -1.5937,0.1875 -1.5938,0.40625 -1.6875,0.59375 -1.625,0.40625 -1.6875,0.3125 -1.5938,0.5 -1.5937,0.5 -1.7187,0.28125 -1.5938,0.125 -1.5938,0 -1.7187,0 -1.5937,0.0937 -1.6876,-0.0937 -1.5937,-0.21875 -1.625,0 -1.6875,0 -1.5938,0 -1.5937,0 -1.7187,0.5 -1.5938,0.5 -1.6875,0.3125 -1.625,0.28125 -1.5937,0.5 -1.6876,0.5 -1.5937,0.625 -1.625,0.5 -1.6875,0.6875 -1.5938,0.40625 -1.5937,0.5 -1.7187,0.40625 -1.5938,0.375 -1.6875,0.5 -1.625,0.3125 -1.5937,0 -1.6876,0.0937 -1.5937,-0.0937 -1.625,-0.0937 -1.6875,-0.3125 -1.5938,-0.40625 -1.7187,-0.59375 -1.5937,-0.6875 -1.5938,-0.8125 -1.6875,-0.6875 -1.625,-0.71875 -1.5937,-0.375 -1.6876,-0.40625 -1.5937,-0.59375 -1.7187,-0.8125 -1.5938,-0.8125 -1.5938,-1 -1.7187,-1.09375 -1.5937,-1.1875 -1.5938,-1.21875 -1.6875,-1.28125 -1.625,-1.3125 -1.5937,-1.28125 -1.6876,-1.21875 -1.5937,-0.90625 -1.7187,-1.28125 -1.5938,-1.21875 -1.5938,-1.1875 -1.7187,-1.3125 -1.5937,-1.1875 -1.5938,-1.09375 -1.6875,-1.09375 -1.625,-1.21875 -1.6875,-1 -1.5938,-1.09375 -1.5937,-1.09375 -1.7187,-0.8125 -1.5938,-0.6875 -1.5938,-0.90625 -1.7187,-1.09375 -1.5937,-1.21875 -1.6876,-1.28125 -1.5937,-1.3125 -1.625,-1.40625 -1.6875,-1.375 -1.5938,-1.5 -1.5937,-1.625 -1.7187,-1.6875 -1.5938,-1.6875 -1.5938,-1.40625 -1.7187,-1.40625 -1.5937,-1.40625 -1.6876,-1.1875 -1.5937,-1.09375 -1.625,-1.21875 -1.6875,-1.1875 -1.5938,-1.40625 -1.5937,-1.1875 -1.7187,-1.21875 -1.5938,-1.1875 -1.6875,-1.3125 -1.625,-1.40625 -1.5937,-0.875 -1.6876,-0.90625 -1.5937,-1 -1.625,-0.90625 -1.6875,-1.09375 -1.5938,-1 -1.7187,-0.90625 -1.5937,-0.90625 -1.5938,-0.78125 -1.6875,-0.90625 -1.625,-0.8125 -1.5937,-0.78125 -1.6876,-0.71875 -1.5937,-0.59375 -1.625,-0.5 -1.6875,-0.6875 -1.5938,-0.90625 -1.7187,-0.90625 -1.5937,-1.09375 -1.5938,-1.09375 -1.6875,-1.125 -1.625,-1.28125 -1.5937,-1.21875 -1.6876,-1.28125 -1.5937,-1.21875 -1.7187,-0.875 L 349,171.5 l -1.5938,-0.3125 -1.7187,-0.5 -1.5937,-0.6875 -1.5938,-0.6875 -1.6875,-0.90625 -1.625,-0.8125 -1.6875,-0.78125 -1.5938,-0.71875 -1.5937,-0.6875 -1.7187,-0.59375 -1.5938,-0.5 -1.5938,-0.5 -1.7187,-0.40625 -1.5937,-0.21875 -1.5938,-0.375 -1.6875,-0.40625 -1.625,-0.5 -1.6875,-0.5 -1.5938,-0.71875 -1.5937,-0.875 -1.7187,-1.125 -1.5938,-1 -1.5938,-1.1875 -1.7187,-0.90625 -1.5937,-0.90625 -1.6876,-0.78125 -1.5937,-0.71875 -1.625,-0.875 -1.6875,-1 -1.5938,-1 -1.5937,-1.125 L 296.5938,148 295,146.6875 l -1.6875,-1.28125 -1.625,-1.09375 -1.5937,-1 -1.6876,-0.90625 -1.5937,-0.8125 -1.625,-0.59375 -1.6875,-0.40625 -1.5938,-0.28125 -1.5937,0 -1.7187,0.0937 -1.5938,0.28125 -1.6875,0.40625 -1.625,0.5 -1.5937,0.71875 -1.6876,0.6875 -1.5937,0.8125 -1.625,0.875 -1.6875,0.90625 -1.5938,0.8125 -1.7187,0.6875 -1.5937,0.71875 -1.5938,0.5 -1.6875,0.28125 -1.625,0.40625 -1.5937,0.40625 -1.6876,0.0937 -1.5937,0.1875 -1.7187,0.125 -1.5938,0 -1.5938,-0.125 -1.7187,-0.28125 -1.5937,-0.3125 -1.5938,-0.28125 -1.6875,-0.21875 -1.625,-0.28125 -1.5937,-0.40625 -1.6876,-0.40625 -1.5937,-0.5 -1.7187,-0.5 -1.5938,-0.59375 -1.5938,-0.59375 -1.7187,-0.71875 L 224.5938,144 223,143.1875 l -1.6875,-0.59375 -1.625,-0.78125 -1.6875,-0.71875 -1.5938,-0.78125 -1.5937,-0.625 -1.7187,-0.6875 -1.5938,-0.6875 -1.5938,-0.625 -1.7187,-0.5 -1.5937,-0.375 -1.6876,-0.21875 -1.5937,-0.1875 -1.625,-0.21875 -1.6875,0.125 -1.5938,0.0937 -1.5937,0.28125 -1.7187,0.40625 -1.5938,0.40625 -1.5938,0.40625 -1.7187,0.5 -1.5937,0.5 -1.6876,0.5 -1.5937,0.40625 -1.625,0.59375 -1.6875,0.40625 -1.5938,0.1875 -1.5937,0.0937 -1.7187,0 L 175.5,141 l -1.6875,-0.1875 -1.625,-0.3125 -1.5937,-0.40625 -1.6876,-0.5 L 167.3125,139 165.6875,138.40625 164,137.8125 162.4062,137 160.8125,136.3125 159.0938,135.59375 157.5,135 l -1.6875,-0.5 -1.625,-0.40625 -1.5937,-0.40625 -1.6876,-0.28125 -1.5937,-0.21875 -1.625,-0.0937 -1.6875,-0.1875 -1.5938,0 -1.7187,0 -1.5937,0.0937 -1.5938,0 -1.6875,-0.0937 -1.625,0 -1.5937,-0.0937 -1.6876,-0.21875 -1.5937,-0.0937 -1.7187,-0.0937 -1.5938,-0.0937 -1.5938,-0.125 -1.7187,-0.1875 -1.5937,0 -1.5938,0.0937 -1.6875,0.0937 -1.625,0.40625 -1.5937,0.40625 -1.6876,0.3125 -1.5937,0.0937 -1.7187,0.1875 -1.5938,0.3125 -1.5938,0.1875 -1.7187,0.21875 -1.5937,0.28125 -1.5938,0.0937 -1.6875,0.3125 -1.625,0.40625 -1.6875,0.28125 -1.5938,0.40625 -1.5937,0.40625 -1.7187,0.1875 L 92,125 90.4062,107 z"
       id="polygon8244" />
  </g>
  <g
     style="fill:none; color:green; stroke:currentColor; stroke-width:1.00; stroke-linecap:butt; stroke-linejoin:miter"
     id="g9246" />
  <g
     style="fill:none; color:black; stroke:currentColor; stroke-width:1.00; stroke-linecap:butt; stroke-linejoin:miter"
     id="g9248">
    <g
       transform="translate(536.7,750.5)"
       style="stroke:none; fill:black; font-family:Arial; font-size:12.00pt; text-anchor:end"
       id="g9250">
      <text
         id="text9252">
        <tspan
           id="tspan9254">[0] Local buffered annual temperature ranges/deg C abs.</tspan>
      </text>
    </g>
  </g>
  <path
     style="color:#008000;fill:#e3c66f;fill-opacity:0.8156682;stroke:none"
     d="m 90.4062,279.90625 -1.7187,6.59375 -1.5937,2.59375 -1.6876,2.21875 -1.5937,2.1875 -1.625,19 0,15.6875 1.625,-19.1875 1.5937,-2.1875 1.6876,-2.3125 1.5937,-2.5 1.7187,-6.6875 1.5938,19.78125 1.5938,12.8125 1.7187,-0.21875 1.5937,-0.28125 1.5938,-0.5 1.6875,-0.40625 1.625,-0.40625 1.6875,-0.28125 1.5938,-0.21875 1.5937,-0.1875 1.7187,-0.3125 1.5938,-0.1875 1.5938,-0.40625 1.7187,-0.0937 1.5937,-0.21875 1.6876,-0.28125 1.5937,-0.5 1.625,-0.40625 1.6875,-0.0937 1.5938,0 1.5937,0 1.7187,0.0937 1.5938,0.0937 1.5938,0.0937 1.7187,0.125 1.5937,0.1875 1.6876,0.0937 1.5937,0.21875 1.625,0 1.6875,0.0937 1.5938,0 1.5937,-0.0937 1.7187,0 1.5938,0 1.6875,0.1875 1.625,0.0937 1.5937,0.3125 1.6876,0.28125 1.5937,0.40625 1.625,0.5 1.6875,0.5 1.5938,0.71875 1.7187,0.6875 1.5937,0.8125 1.5938,0.78125 1.6875,0.71875 1.625,0.6875 1.5937,0.59375 1.6876,0.59375 1.5937,0.40625 1.625,0.3125 1.6875,0.28125 1.5938,0.125 1.7187,0 1.5937,-0.125 1.5938,-0.28125 1.6875,-0.40625 1.625,-0.59375 1.5937,-0.5 1.6876,-0.5 1.5937,-0.5 1.7187,-0.59375 1.5938,-0.40625 1.5938,-0.5 1.7187,-0.5 1.5937,-0.3125 1.5938,-0.0937 1.6875,-0.0937 1.625,0.1875 1.5937,0.21875 1.6876,0.28125 1.5937,0.40625 1.7187,0.5 1.5938,0.6875 1.5938,0.8125 1.7187,0.8125 1.5937,0.59375 1.5938,0.90625 1.6875,0.78125 1.625,0.8125 1.6875,0.6875 1.5938,0.8125 1.5937,0.78125 1.7187,0.71875 1.5938,0.59375 1.5938,0.6875 1.7187,0.625 1.5937,0.5 1.6876,0.375 1.5937,0.625 1.625,0.28125 1.6875,0.21875 1.5938,0.28125 1.5937,0.40625 1.7187,0.1875 1.5938,0.21875 1.5938,0 1.7187,-0.0937 1.5937,-0.21875 1.6876,-0.1875 1.5937,-0.40625 1.625,-0.40625 1.6875,-0.40625 1.5938,-0.5 1.5937,-0.78125 1.7187,-0.8125 1.5938,-0.90625 1.6875,-1 1.625,-1 1.5937,-0.78125 1.6876,-0.8125 1.5937,-0.6875 1.625,-0.59375 1.6875,-0.5 1.5938,-0.3125 1.7187,-0.0937 1.5937,0.0937 1.5938,0.1875 1.6875,0.5 1.625,0.71875 1.5937,0.78125 1.6876,1 1.5937,1.125 1.625,1.28125 L 295,339 l 1.5938,1.40625 1.7187,1.28125 1.5937,1.21875 L 301.5,344 l 1.6875,1.09375 1.625,0.90625 1.5937,0.90625 1.6876,0.90625 1.5937,0.875 1.7187,1 L 313,351 l 1.5938,1.1875 1.7187,1.125 1.5937,1 1.5938,0.78125 1.6875,0.59375 1.625,0.5 1.6875,0.40625 1.5938,0.5 1.5937,0.21875 1.7187,0.5 1.5938,0.5 1.5938,0.5 1.7187,0.6875 1.5937,0.8125 1.5938,0.6875 1.6875,0.90625 1.625,0.90625 1.6875,1 1.5938,0.78125 1.5937,0.71875 1.7187,0.5 1.5938,0.375 1.5938,0.90625 1.7187,1 1.5937,1.3125 1.6876,1.40625 1.5937,1.375 1.625,1.40625 1.6875,1.21875 1.5938,1.1875 1.5937,1.1875 1.7187,1 1.5938,1 1.6875,0.71875 1.625,0.59375 1.5937,0.59375 1.6876,0.90625 1.5937,0.8125 1.625,0.875 1.6875,0.90625 1.5938,1 1.5937,0.90625 1.7187,1 1.5938,1.09375 1.6875,1.3125 1.625,0.90625 1.5937,1.09375 1.6876,1 1.5937,1 1.625,1.5 1.6875,1.40625 1.5938,1.375 1.7187,1.3125 1.5937,1.40625 1.5938,1.5 1.6875,1.28125 1.625,1.21875 1.5937,1.28125 1.6876,1.3125 1.5937,1.59375 1.7187,1.5 1.5938,1.5 1.5938,1.90625 1.7187,1.90625 1.5937,1.6875 1.5938,1.71875 1.6875,1.5 1.625,1.5 1.5937,1.375 1.6876,1.40625 1.5937,1.40625 1.7187,1.1875 1.5938,1 1.5938,0.8125 1.7187,0.90625 1.5937,1.1875 1.5938,1.21875 1.6875,1.09375 1.625,1.1875 1.6875,1.3125 1.5938,1.1875 1.5937,1.3125 1.7187,1.40625 1.5938,1.375 1.5938,1.3125 1.7187,1.40625 1.5937,1 1.6876,1.28125 1.5937,1.5 1.625,1.40625 L 462,451 l 1.5938,1.3125 1.5937,1.28125 1.7187,1.21875 1.5938,1.1875 1.5938,0.90625 1.7187,0.78125 1.5937,0.71875 1.6876,0.40625 1.5937,0.5 1.625,0.6875 1.6875,0.8125 1.5938,0.875 1.5937,0.8125 1.7187,0.59375 1.5938,0.40625 1.6875,0.3125 1.625,0.1875 1.5937,0.0937 1.6876,-0.0937 1.5937,-0.0937 1.625,-0.21875 1.6875,-0.59375 1.5938,-0.5 1.7187,-0.40625 1.5937,-0.5 1.5938,-0.5 1.6875,-0.6875 1.625,-0.59375 1.5937,-0.59375 1.6876,-0.625 1.5937,-0.5 1.625,-0.375 1.6875,-0.3125 1.5938,-0.59375 1.7187,-0.5 1.5937,0 1.5938,0 1.6875,0 1.625,0 1.5937,0.1875 1.6876,0.0937 1.5937,-0.0937 1.7187,0 1.5938,0 1.5938,-0.0937 1.7187,-0.3125 1.5937,-0.59375 L 540.5,455 l 1.6875,-0.3125 1.625,-0.375 1.6875,-0.625 1.5938,-0.375 1.5937,-0.3125 1.7187,-0.1875 1.5938,-0.125 1.5938,-0.375 1.7187,-0.3125 1.5937,-0.3125 1.5938,-0.0937 1.6875,-0.1875 1.625,0 1.6875,0.0937 1.5938,0.0937 1.5937,0.0937 1.7187,0.125 1.5938,-0.125 1.5938,-0.1875 1.7187,-0.1875 1.5937,-0.5 1.6876,-0.3125 1.5937,-0.5 1.625,-0.6875 1.6875,-1.125 1.5938,-0.875 1.5937,-1 1.7187,-0.90625 1.5938,-0.71875 1.6875,-0.875 1.625,-0.71875 1.5937,-0.59375 1.6876,-0.59375 1.5937,-0.40625 1.625,-0.3125 1.6875,-0.1875 1.5938,-0.0937 1.5937,-0.3125 1.7187,-0.28125 1.5938,0 1.6875,0 1.625,-0.125 1.5937,-0.0937 1.6876,-0.0937 1.5937,0 1.625,0 1.6875,0 1.5938,-0.0937 1.7187,0 1.5937,-0.0937 1.5938,-0.21875 1.6875,-0.28125 1.625,-0.125 1.5937,-0.0937 1.6876,-0.28125 1.5937,-0.3125 1.7187,-0.3125 1.5938,-0.0937 1.5938,-0.0937 1.7187,-0.0937 1.5937,-0.0937 1.5938,-0.21875 1.6875,-0.1875 1.625,-0.3125 1.5937,-0.40625 1.6876,-0.28125 1.5937,-0.40625 1.7187,-0.40625 1.5938,-0.40625 1.5938,-0.1875 1.7187,-0.3125 1.5937,-0.0937 1.5938,0.0937 1.6875,0 1.625,0 L 665,435 l 1.5938,0.3125 1.5937,0.375 1.7187,0.5 1.5938,0.625 1.5938,0.6875 1.7187,0.6875 1.5937,0.71875 1.5938,0.6875 1.6875,0.71875 1.625,0.6875 1.6875,0.59375 1.5938,0.59375 1.5937,0.8125 1.7187,0.5 1.5938,0.40625 1.5938,0.28125 1.7187,0.21875 1.5937,0.1875 1.6876,0.21875 1.5937,0.0937 1.625,0.0937 1.6875,0.1875 1.5938,0.125 1.5937,0.0937 1.7187,0.0937 1.5938,0.3125 1.6875,0 1.625,-0.125 1.5937,-0.0937 1.6876,-0.1875 1.5937,-0.21875 1.625,-0.1875 1.6875,-0.3125 1.5938,-0.28125 1.5937,-0.3125 1.7187,-0.59375 1.5938,-0.6875 1.6875,-0.71875 1.625,-0.40625 1.5937,-0.78125 1.6876,-0.8125 1.5937,-0.78125 1.625,-0.8125 1.6875,-0.59375 1.5938,-0.5 1.7187,-0.59375 1.5937,-0.40625 1.5938,-0.3125 1.6875,-0.1875 1.625,-0.21875 1.5937,0 1.6876,0.125 1.5937,0.0937 1.7187,0.0937 1.5938,0.1875 1.5938,0.21875 1.7187,0 1.5937,0.0937 1.5938,0.0937 1.6875,-0.1875 1.625,-0.21875 1.5937,-0.0937 1.6876,-0.0937 1.5937,0 1.7187,0 1.5938,-0.0937 1.5938,0 1.7187,0.0937 1.5937,0.1875 1.5938,0.125 1.6875,0.0937 1.625,0.0937 1.6875,0.3125 1.5938,0.28125 1.5937,0.0937 1.7187,0.125 1.5938,0 1.5938,0 1.7187,-0.125 1.5937,-0.0937 1.6876,-0.0937 1.5937,-0.1875 1.625,-0.21875 1.6875,-0.1875 1.5938,0 1.5937,0.0937 1.7187,0 1.5938,0.0937 1.5938,0.0937 1.7187,0.3125 1.5937,0.0937 1.6876,0.0937 1.5937,0 1.625,0 1.6875,0 1.5938,-0.0937 1.5937,-0.1875 1.7187,-0.3125 1.5938,-0.40625 1.6875,-0.5 1.625,-0.6875 1.5937,-0.90625 1.6876,-0.78125 1.5937,-1.21875 1.625,-1.28125 1.6875,-1.40625 1.5938,-1.09375 1.7187,-1.125 1.5937,-0.875 1.5938,-0.71875 1.6875,-0.5 1.625,-0.59375 1.5937,-0.40625 1.6876,-0.28125 1.5937,-0.125 1.625,0.125 1.6875,-0.21875 1.5938,0.0937 1.7187,0 1.5937,-0.0937 1.5938,0 1.6875,-0.1875 1.625,-0.21875 1.5937,-0.28125 1.6876,-0.21875 1.5937,-0.1875 1.7187,0 1.5938,0 1.5938,0 1.7187,0.0937 1.5937,0.0937 L 881,423 l 1.6875,0.40625 1.625,0.5 1.6875,0.5 1.5938,0.28125 1.5937,0.40625 1.7187,0.40625 1.5938,0.5 1.5938,0.3125 1.7187,0.5 1.5937,0.375 1.5938,0.40625 1.6875,0.3125 1.625,0.1875 0,-16.40625 -1.625,-0.1875 -1.6875,-0.3125 -1.5938,-0.28125 -1.5937,-0.5 L 894.0938,410 892.5,409.59375 l -1.5938,-0.40625 -1.7187,-0.375 -1.5937,-0.40625 L 886,408.09375 884.3125,407.5 882.6875,407.09375 881,406.6875 l -1.5938,-0.28125 -1.5937,-0.0937 -1.7187,-0.125 -1.5938,0 -1.5938,-0.0937 -1.7187,0.0937 -1.5937,0.21875 -1.6876,0.1875 -1.5937,0.21875 -1.625,0.1875 -1.6875,0.1875 -1.5938,0.125 -1.5937,0.0937 -1.7187,0 -1.5938,-0.0937 -1.6875,0.1875 -1.625,-0.0937 -1.5937,0.0937 -1.6876,0.1875 -1.5937,0.5 -1.625,0.5 -1.6875,0.625 -1.5938,0.6875 -1.5937,0.90625 -1.7187,1 -1.5938,1.1875 -1.6875,1.3125 -1.625,1.28125 -1.5937,1.21875 -1.6876,0.78125 -1.5937,0.90625 -1.625,0.71875 -1.6875,0.5 -1.5938,0.375 -1.7187,0.3125 -1.5937,0.1875 -1.5938,0.125 -1.6875,0 -1.625,0 -1.5937,-0.125 -1.6876,0 -1.5937,-0.1875 -1.7187,-0.1875 -1.5938,-0.21875 -1.5938,0 -1.7187,0 -1.5937,-0.0937 -1.5938,0 -1.6875,0.1875 -1.625,0.21875 -1.5937,0.1875 -1.6876,0.0937 -1.5937,0.125 -1.7187,0.0937 -1.5938,0 -1.5938,0 -1.7187,-0.21875 -1.5937,0 -1.5938,-0.28125 -1.6875,-0.3125 -1.625,-0.0937 -1.6875,-0.0937 -1.5938,-0.21875 -1.5937,-0.0937 -1.7187,-0.0937 -1.5938,0 -1.5938,0 -1.7187,0.0937 -1.5937,0 -1.6876,0.0937 -1.5937,0.125 -1.625,0.1875 -1.6875,0.0937 -1.5938,0 -1.5937,-0.0937 -1.7187,0 -1.5938,-0.1875 -1.5938,-0.21875 -1.7187,-0.0937 -1.5937,-0.0937 -1.6876,-0.0937 -1.5937,0 -1.625,0.1875 -1.6875,0.1875 -1.5938,0.3125 -1.5937,0.40625 -1.7187,0.5 L 737,421.5 l -1.6875,0.5 -1.625,0.8125 -1.5937,0.875 -1.6876,0.71875 -1.5937,0.78125 -1.625,0.5 -1.6875,0.625 -1.5938,0.6875 -1.7187,0.59375 -1.5937,0.3125 -1.5938,0.28125 -1.6875,0.3125 -1.625,0.1875 -1.5937,0.21875 -1.6876,0.1875 -1.5937,0.0937 -1.625,0.125 -1.6875,0 -1.5938,-0.3125 -1.7187,-0.0937 -1.5937,-0.0937 -1.5938,-0.125 -1.6875,-0.1875 -1.625,-0.0937 -1.5937,-0.0937 -1.6876,-0.21875 -1.5937,-0.1875 -1.7187,-0.21875 -1.5938,-0.28125 -1.5938,-0.40625 -1.7187,-0.5 -1.5937,-0.6875 -1.5938,-0.625 -1.6875,-0.6875 -1.625,-0.59375 -1.6875,-0.71875 -1.5938,-0.6875 -1.5937,-0.6875 -1.7187,-0.8125 -1.5938,-0.59375 -1.5938,-0.59375 -1.7187,-0.625 -1.5937,-0.28125 -1.5938,-0.3125 -1.6875,-0.28125 -1.625,0 -1.6875,0 -1.5938,-0.125 -1.5937,0.125 -1.7187,0.28125 -1.5938,0.21875 -1.5938,0.375 -1.7187,0.3125 -1.5937,0.40625 -1.6876,0.40625 -1.5937,0.28125 -1.625,0.40625 -1.6875,0.1875 -1.5938,0.21875 -1.5937,0.0937 -1.7187,0 -1.5938,0.0937 -1.5938,0.21875 -1.7187,0.28125 -1.5937,0.3125 -1.6876,0.1875 -1.5937,0.21875 -1.625,0.0937 -1.6875,0.28125 -1.5938,0.21875 -1.5937,0 -1.7187,0.0937 -1.5938,0 -1.6875,0.0937 -1.625,0 -1.5937,0 -1.6876,0.0937 -1.5937,0.125 -1.625,0 -1.6875,0 -1.5938,0.0937 -1.7187,0.28125 -1.5937,0.21875 -1.5938,0.0937 -1.6875,0.1875 -1.625,0.40625 -1.5937,0.40625 -1.6876,0.5 -1.5937,0.59375 -1.625,0.71875 -1.6875,0.875 -1.5938,0.71875 -1.7187,0.90625 -1.5937,1 -1.5938,0.875 -1.6875,1.125 -1.625,0.6875 -1.5937,0.40625 -1.6876,0.40625 -1.5937,0.375 -1.7187,0.3125 -1.5938,0.1875 -1.5938,0.125 -1.7187,-0.125 -1.5937,-0.1875 -1.5938,0 -1.6875,-0.1875 -1.625,0 -1.6875,0.1875 -1.5938,0.1875 -1.5937,0.21875 -1.7187,0.40625 -1.5938,0.28125 -1.5938,0.21875 -1.7187,0.0937 -1.5937,0.28125 -1.5938,0.5 -1.6875,0.5 -1.625,0.40625 -1.6875,0.40625 -1.5938,0.5 -1.5937,0.6875 -1.7187,0.3125 -1.5938,0 -1.5938,0 -1.7187,0.0937 -1.5937,0 -1.6876,-0.0937 -1.5937,-0.0937 -1.625,-0.0937 -1.6875,0 -1.5938,0 -1.5937,0 -1.7187,0.5 -1.5938,0.59375 -1.6875,0.40625 -1.625,0.28125 -1.5937,0.59375 -1.6876,0.5 -1.5937,0.625 -1.625,0.59375 -1.6875,0.6875 -1.5938,0.5 -1.5937,0.5 L 499.5938,446 498,446.40625 496.3125,447 l -1.625,0.3125 -1.5937,0.0937 -1.6876,0 -1.5937,0 -1.625,-0.21875 -1.6875,-0.28125 -1.5938,-0.5 -1.7187,-0.5 -1.5937,-0.8125 -1.5938,-0.90625 -1.6875,-0.78125 -1.625,-0.71875 -1.5937,-0.375 -1.6876,-0.5 -1.5937,-0.71875 -1.7187,-0.78125 -1.5938,-0.90625 -1.5938,-1.09375 -1.7187,-1.21875 -1.5937,-1.28125 L 462,434.5 l -1.6875,-1.40625 -1.625,-1.5 -1.5937,-1.40625 -1.6876,-1.28125 -1.5937,-1 -1.7187,-1.40625 -1.5938,-1.3125 -1.5938,-1.28125 -1.7187,-1.5 -1.5937,-1.3125 L 444,420 442.3125,418.6875 440.6875,417.5 439,416.40625 437.4062,415.1875 435.8125,414 l -1.7187,-0.90625 -1.5938,-0.6875 -1.5938,-1 -1.7187,-1.21875 -1.5937,-1.375 -1.6876,-1.40625 L 424.3125,406 422.6875,404.5 421,403 l -1.5938,-1.59375 -1.5937,-1.8125 -1.7187,-1.90625 -1.5938,-1.78125 -1.5938,-1.59375 -1.7187,-1.40625 -1.5937,-1.59375 -1.6876,-1.3125 -1.5937,-1.3125 -1.625,-1.1875 -1.6875,-1.3125 -1.5938,-1.5 -1.5937,-1.375 -1.7187,-1.3125 -1.5938,-1.3125 -1.6875,-1.375 -1.625,-1.5 -1.5937,-1 -1.6876,-1 -1.5937,-1.125 -1.625,-0.875 -1.6875,-1.21875 -1.5938,-1.1875 -1.7187,-1 -1.5937,-0.90625 -1.5938,-0.90625 -1.6875,-0.90625 -1.625,-0.875 -1.5937,-0.90625 -1.6876,-0.8125 -1.5937,-0.59375 -1.625,-0.59375 -1.6875,-0.71875 -1.5938,-1 -1.7187,-1 -1.5937,-1.1875 -1.5938,-1.1875 -1.6875,-1.21875 -1.625,-1.40625 -1.5937,-1.375 -1.6876,-1.40625 -1.5937,-1.21875 -1.7187,-1 -1.5938,-0.875 -1.5938,-0.40625 -1.7187,-0.5 -1.5937,-0.71875 L 342.5,347.90625 340.8125,347 l -1.625,-1 -1.6875,-0.8125 -1.5938,-0.78125 -1.5937,-0.8125 L 332.5938,343 331,342.40625 l -1.5938,-0.5 -1.7187,-0.40625 -1.5937,-0.1875 -1.5938,-0.5 -1.6875,-0.5 -1.625,-0.40625 -1.6875,-0.59375 -1.5938,-0.8125 -1.5937,-1 -1.7187,-1.09375 -1.5938,-1.21875 -1.5938,-1.28125 -1.7187,-1 -1.5937,-0.90625 -1.6876,-0.90625 -1.5937,-0.78125 -1.625,-0.90625 -1.6875,-1.09375 -1.5938,-1.21875 -1.5937,-1.09375 -1.7187,-1.3125 -1.5938,-1.375 -1.6875,-1.40625 -1.625,-1.3125 -1.5937,-1 -1.6876,-1 -1.5937,-0.90625 -1.625,-0.59375 -1.6875,-0.5 -1.5938,-0.28125 -1.5937,0 -1.7187,0.0937 -1.5938,0.28125 -1.6875,0.40625 -1.625,0.59375 -1.5937,0.71875 -1.6876,0.78125 -1.5937,0.8125 -1.625,1 -1.6875,1 -1.5938,0.90625 -1.7187,0.78125 -1.5937,0.8125 -1.5938,0.5 -1.6875,0.40625 -1.625,0.40625 -1.5937,0.375 -1.6876,0.125 -1.5937,0.1875 -1.7187,0.1875 -1.5938,0 -1.5938,-0.1875 -1.7187,-0.3125 -1.5937,-0.28125 -1.5938,-0.3125 -1.6875,-0.28125 -1.625,-0.3125 -1.5937,-0.5 -1.6876,-0.40625 -1.5937,-0.5 -1.7187,-0.59375 -1.5938,-0.6875 -1.5938,-0.625 -1.7187,-0.6875 -1.5937,-0.6875 L 223,319.5 l -1.6875,-0.6875 -1.625,-0.90625 -1.6875,-0.8125 -1.5938,-0.78125 -1.5937,-0.71875 -1.7187,-0.78125 -1.5938,-0.71875 -1.5938,-0.6875 -1.7187,-0.5 -1.5937,-0.40625 -1.6876,-0.3125 -1.5937,-0.1875 -1.625,-0.1875 -1.6875,0.0937 -1.5938,0.0937 -1.5937,0.3125 -1.7187,0.5 -1.5938,0.5 -1.5938,0.375 -1.7187,0.5 -1.5937,0.625 -1.6876,0.5 -1.5937,0.375 -1.625,0.71875 -1.6875,0.40625 -1.5938,0.1875 -1.5937,0.1875 -1.7187,0 L 175.5,317 l -1.6875,-0.1875 -1.625,-0.3125 -1.5937,-0.5 -1.6876,-0.5 -1.5937,-0.6875 -1.625,-0.625 L 164,313.5 l -1.5938,-0.8125 -1.5937,-0.78125 -1.7187,-0.71875 -1.5938,-0.6875 -1.6875,-0.59375 -1.625,-0.40625 -1.5937,-0.40625 -1.6876,-0.28125 -1.5937,-0.3125 -1.625,-0.0937 -1.6875,-0.21875 -1.5938,0 -1.7187,0 -1.5937,0.125 -1.5938,0 -1.6875,-0.125 -1.625,0 -1.5937,-0.0937 -1.6876,-0.1875 -1.5937,-0.21875 -1.7187,-0.0937 L 128,307.5 l -1.5938,-0.0937 -1.7187,-0.0937 -1.5937,0 -1.5938,0 -1.6875,0.1875 -1.625,0.3125 -1.5937,0.5 -1.6876,0.28125 -1.5937,0.21875 -1.7187,0.0937 -1.5938,0.40625 -1.5938,0.1875 -1.7187,0.1875 -1.5937,0.3125 -1.5938,0.1875 -1.6875,0.3125 -1.625,0.40625 -1.6875,0.40625 -1.5938,0.375 -1.5937,0.40625 -1.7187,0.21875 L 92,299.5 90.4062,279.90625 z M 545,741.5 l 0,9 42.1875,0 0,-9 -42.1875,0 z"
     id="polygon9260" />
  <g
     style="fill:none; color:blue; stroke:currentColor; stroke-width:1.00; stroke-linecap:butt; stroke-linejoin:miter"
     id="g10268" />
  <g
     style="fill:none; color:black; stroke:currentColor; stroke-width:1.00; stroke-linecap:butt; stroke-linejoin:miter"
     id="g10270">
    <g
       transform="translate(536.7,768.5)"
       style="stroke:none; fill:black; font-family:Arial; font-size:12.00pt; text-anchor:end"
       id="g10272">
      <text
         id="text10274">
        <tspan
           id="tspan10276">[0] Local MAT/deg C abs.</tspan>
      </text>
    </g>
  </g>
  <g
     style="color:#0000ff;fill:none;stroke:currentColor;stroke-width:1;stroke-linecap:butt;stroke-linejoin:miter"
     id="g10278">
    <path
       d="m 545,764 42.2,0 m -505,-443.7 1.6,-19 1.6,-2.2 1.7,-2.3 1.6,-2.6 1.7,-6.6 1.6,19.7 1.6,12.8 1.7,-0.2 1.6,-0.4 1.6,-0.4 1.7,-0.4 1.6,-0.4 1.7,-0.3 1.6,-0.2 1.6,-0.2 1.7,-0.3 1.6,-0.2 1.6,-0.4 1.7,-0.1 1.6,-0.2 1.7,-0.3 1.6,-0.5 1.6,-0.4 1.7,-0.1 1.6,0 1.6,0 1.7,0.1 1.6,0.1 1.6,0.1 1.7,0.1 1.6,0.2 1.7,0.2 1.6,0.1 1.6,0 1.7,0.1 1.6,0 1.6,-0.1 1.7,0 1.6,0 1.7,0.2 1.6,0.1 1.6,0.3 1.7,0.3 1.6,0.4 1.6,0.5 1.7,0.5 1.6,0.7 1.7,0.7 1.6,0.8 1.6,0.8 1.7,0.7 1.6,0.7 1.6,0.6 1.7,0.6 1.6,0.4 1.6,0.3 1.7,0.2 1.6,0.2 1.7,0 1.6,-0.2 1.6,-0.2 1.7,-0.4 1.6,-0.6 1.6,-0.5 1.7,-0.5 1.6,-0.6 1.7,-0.5 1.6,-0.4 1.6,-0.5 1.7,-0.5 1.6,-0.3 1.6,-0.1 1.7,-0.1 1.6,0.2 1.6,0.2 1.7,0.3 1.6,0.4 1.7,0.5 1.6,0.7 1.6,0.7 1.7,0.8 1.6,0.7 1.6,0.8 1.7,0.9 1.6,0.8 1.7,0.7 1.6,0.8 1.6,0.8 1.7,0.7 1.6,0.6 1.6,0.7 1.7,0.6 1.6,0.4 1.7,0.5 1.6,0.5 1.6,0.3 1.7,0.2 1.6,0.3 1.6,0.4 1.7,0.3 1.6,0.1 1.6,0 1.7,-0.1 1.6,-0.2 1.7,-0.2 1.6,-0.4 1.6,-0.4 1.7,-0.4 1.6,-0.5 1.6,-0.8 1.7,-0.8 1.6,-0.8 1.7,-1 1.6,-1 1.6,-0.9 1.7,-0.7 1.6,-0.8 1.6,-0.5 1.7,-0.5 1.6,-0.3 1.7,-0.1 1.6,0 1.6,0.3 1.7,0.5 1.6,0.7 1.6,0.8 1.7,1 1.6,1.1 1.6,1.2 1.7,1.4 1.6,1.5 1.7,1.2 1.6,1.2 1.6,1.2 1.7,1.1 1.6,0.9 1.6,0.8 1.7,0.9 1.6,0.9 1.7,1 1.6,1.3 1.6,1.2 1.7,1.1 1.6,1 1.6,0.8 1.7,0.6 1.6,0.5 1.7,0.4 1.6,0.5 1.6,0.2 1.7,0.5 1.6,0.5 1.6,0.5 1.7,0.7 1.6,0.8 1.6,0.7 1.7,0.9 1.6,0.9 1.7,0.9 1.6,0.9 1.6,0.7 1.7,0.5 1.6,0.4 1.6,0.9 1.7,1 1.6,1.2 1.7,1.4 1.6,1.4 1.6,1.4 1.7,1.2 1.6,1.2 1.6,1.2 1.7,1 1.6,1 1.7,0.7 1.6,0.6 1.6,0.6 1.7,0.8 1.6,0.9 1.6,0.9 1.7,0.9 1.6,0.9 1.6,1 1.7,1 1.6,1.1 1.7,1.2 1.6,1 1.6,1 1.7,1 1.6,1.1 1.6,1.4 1.7,1.4 1.6,1.4 1.7,1.3 1.6,1.4 1.6,1.5 1.7,1.3 1.6,1.2 1.6,1.3 1.7,1.3 1.6,1.6 1.7,1.4 1.6,1.6 1.6,1.8 1.7,2 1.6,1.7 1.6,1.6 1.7,1.6 1.6,1.5 1.6,1.4 1.7,1.4 1.6,1.3 1.7,1.3 1.6,1 1.6,0.7 1.7,0.9 1.6,1.2 1.6,1.2 1.7,1.1 1.6,1.2 1.7,1.3 1.6,1.2 1.6,1.3 1.7,1.4 1.6,1.3 1.6,1.3 1.7,1.4 1.6,1.1 1.7,1.3 1.6,1.4 1.6,1.5 1.7,1.3 1.6,1.3 1.6,1.3 1.7,1.3 1.6,1.1 1.6,0.9 1.7,0.8 1.6,0.7 1.7,0.5 1.6,0.4 1.6,0.7 1.7,0.8 1.6,0.9 1.6,0.8 1.7,0.5 1.6,0.5 1.7,0.3 1.6,0.2 1.6,0.1 1.7,-0.1 1.6,-0.1 1.6,-0.2 1.7,-0.6 1.6,-0.5 1.7,-0.4 1.6,-0.5 1.6,-0.5 1.7,-0.7 1.6,-0.6 1.6,-0.6 1.7,-0.5 1.6,-0.6 1.6,-0.4 1.7,-0.3 1.6,-0.6 1.7,-0.5 1.6,0 1.6,0 1.7,0 1.6,0 1.6,0.2 1.7,0.1 1.6,0 1.7,-0.1 1.6,0 1.6,0 1.7,-0.4 1.6,-0.6 1.6,-0.5 1.7,-0.4 1.6,-0.4 1.7,-0.6 1.6,-0.4 1.6,-0.3 1.7,-0.1 1.6,-0.2 1.6,-0.4 1.7,-0.3 1.6,-0.3 1.6,-0.1 1.7,-0.2 1.6,0 1.7,0.1 1.6,0.1 1.6,0.2 1.7,0 1.6,-0.1 1.6,-0.2 1.7,-0.2 1.6,-0.5 1.7,-0.3 1.6,-0.4 1.6,-0.8 1.7,-1 1.6,-1 1.6,-0.9 1.7,-0.9 1.6,-0.8 1.7,-0.9 1.6,-0.7 1.6,-0.5 1.7,-0.6 1.6,-0.4 1.6,-0.4 1.7,-0.1 1.6,-0.1 1.6,-0.3 1.7,-0.3 1.6,-0.1 1.7,0 1.6,0 1.6,-0.1 1.7,-0.1 1.6,0 1.6,0 1.7,-0.1 1.6,0 1.7,0 1.6,-0.1 1.6,-0.2 1.7,-0.3 1.6,-0.1 1.6,-0.1 1.7,-0.3 1.6,-0.3 1.7,-0.3 1.6,-0.2 1.6,0 1.7,-0.1 1.6,-0.1 1.6,-0.2 1.7,-0.2 1.6,-0.4 1.6,-0.3 1.7,-0.4 1.6,-0.4 1.7,-0.3 1.6,-0.4 1.6,-0.2 1.7,-0.3 1.6,-0.1 1.6,0.1 1.7,0 1.6,0 1.7,0.3 1.6,0.3 1.6,0.4 1.7,0.5 1.6,0.6 1.6,0.6 1.7,0.8 1.6,0.7 1.6,0.7 1.7,0.7 1.6,0.7 1.7,0.6 1.6,0.6 1.6,0.7 1.7,0.6 1.6,0.3 1.6,0.3 1.7,0.2 1.6,0.2 1.7,0.2 1.6,0.2 1.6,0.1 1.7,0.1 1.6,0.1 1.6,0.1 1.7,0.2 1.6,0.3 1.7,-0.1 1.6,-0.1 1.6,-0.1 1.7,-0.1 1.6,-0.3 1.6,-0.2 1.7,-0.2 1.6,-0.4 1.6,-0.2 1.7,-0.6 1.6,-0.7 1.7,-0.7 1.6,-0.5 1.6,-0.7 1.7,-0.8 1.6,-0.8 1.6,-0.9 1.7,-0.5 1.6,-0.6 1.7,-0.5 1.6,-0.4 1.6,-0.3 1.7,-0.2 1.6,-0.2 1.6,0 1.7,0.1 1.6,0.1 1.7,0.1 1.6,0.2 1.6,0.2 1.7,0 1.6,0.1 1.6,0.1 1.7,-0.2 1.6,-0.2 1.6,-0.1 1.7,-0.1 1.6,0 1.7,0 1.6,-0.1 1.6,0 1.7,0.1 1.6,0.2 1.6,0.1 1.7,0.1 1.6,0.1 1.7,0.3 1.6,0.3 1.6,0.1 1.7,0.1 1.6,0 1.6,0 1.7,-0.1 1.6,-0.1 1.7,-0.1 1.6,-0.2 1.6,-0.2 1.7,-0.2 1.6,0 1.6,0.1 1.7,0 1.6,0.1 1.6,0.1 1.7,0.3 1.6,0.1 1.7,0.1 1.6,0 1.6,0 1.7,0 1.6,-0.1 1.6,-0.2 1.7,-0.3 1.6,-0.4 1.7,-0.5 1.6,-0.7 1.6,-0.9 1.7,-0.8 1.6,-1.2 1.6,-1.3 1.7,-1.3 1.6,-1.2 1.7,-1 1.6,-0.9 1.6,-0.7 1.7,-0.6 1.6,-0.6 1.6,-0.4 1.7,-0.3 1.6,0 1.6,0 1.7,-0.1 1.6,0.1 1.7,0 1.6,-0.1 1.6,-0.1 1.7,-0.2 1.6,-0.2 1.6,-0.2 1.7,-0.2 1.6,-0.2 1.7,-0.1 1.6,0 1.6,0.1 1.7,0 1.6,0.2 1.6,0.3 1.7,0.4 1.6,0.4 1.7,0.5 1.6,0.4 1.6,0.3 1.7,0.4 1.6,0.5 1.6,0.3 1.7,0.5 1.6,0.4 1.6,0.4 1.7,0.3 1.6,0.2"
       id="path10280"
       style="stroke:#88293a" />
  </g>
  <g
     style="fill:none; color:cyan; stroke:currentColor; stroke-width:1.00; stroke-linecap:butt; stroke-linejoin:miter"
     id="g10282" />
  <g
     style="fill:none; color:black; stroke:currentColor; stroke-width:1.00; stroke-linecap:butt; stroke-linejoin:miter"
     id="g10284">
    <g
       transform="translate(536.7,786.5)"
       style="stroke:none; fill:black; font-family:Arial; font-size:12.00pt; text-anchor:end"
       id="g10286">
      <text
         id="text10288">
        <tspan
           id="tspan10290">[0] Global anomaly/deg C rel.</tspan>
      </text>
    </g>
  </g>
  <g
     style="fill:none; color:cyan; stroke:currentColor; stroke-width:1.00; stroke-linecap:butt; stroke-linejoin:miter"
     id="g10292">
    <path
       stroke="rgb( 29, 143,  57)"
       d="M545.0,782.0 L587.2,782.0 M82.2,175.5 L83.8,108.6 L85.4,100.8 L87.1,93.0 L88.7,84.0 L90.4,60.6    L92.0,129.8 L93.6,174.7 L95.3,173.9 L96.9,172.7 L98.5,171.1 L100.2,169.7 L101.8,168.5 L103.5,167.3    L105.1,166.7 L106.7,165.7 L108.4,164.8 L110.0,164.0 L111.6,162.9 L113.3,162.3 L114.9,161.8 L116.6,160.8    L118.2,159.0 L119.8,157.6 L121.5,157.2 L123.1,157.0 L124.7,157.0 L126.4,157.5 L128.0,157.8 L129.6,158.2    L131.3,158.6 L132.9,159.1 L134.6,159.7 L136.2,160.1 L137.8,160.4 L139.5,160.6 L141.1,160.7 L142.7,160.4    L144.4,160.3 L146.0,160.4 L147.7,160.8 L149.3,161.4 L150.9,162.2 L152.6,163.3 L154.2,164.7 L155.8,166.4    L157.5,168.4 L159.1,170.7 L160.8,173.2 L162.4,176.0 L164.0,178.9 L165.7,181.3 L167.3,183.7 L168.9,185.9    L170.6,187.9 L172.2,189.4 L173.8,190.4 L175.5,191.2 L177.1,191.8 L178.8,191.8 L180.4,191.2 L182.0,190.5    L183.7,189.1 L185.3,186.8 L186.9,185.1 L188.6,183.4 L190.2,181.5 L191.9,179.6 L193.5,178.0 L195.1,176.3    L196.8,174.7 L198.4,173.6 L200.0,173.2 L201.7,172.9 L203.3,173.6 L204.9,174.4 L206.6,175.4 L208.2,176.7    L209.9,178.6 L211.5,180.9 L213.1,183.6 L214.8,186.4 L216.4,188.7 L218.0,191.6 L219.7,194.6 L221.3,197.4    L223.0,199.9 L224.6,202.7 L226.2,205.4 L227.9,207.8 L229.5,210.1 L231.1,212.5 L232.8,214.6 L234.4,216.2    L236.1,217.7 L237.7,219.5 L239.3,220.6 L241.0,221.4 L242.6,222.4 L244.2,223.7 L245.9,224.7 L247.5,225.3    L249.1,225.2 L250.8,224.8 L252.4,224.1 L254.1,223.5 L255.7,222.1 L257.3,220.7 L259.0,219.3 L260.6,217.6    L262.2,214.8 L263.9,212.0 L265.5,208.9 L267.2,205.4 L268.8,201.9 L270.4,199.0 L272.1,196.2 L273.7,193.7    L275.3,191.7 L277.0,190.1 L278.6,189.1 L280.3,188.6 L281.9,188.8 L283.5,189.7 L285.2,191.5 L286.8,193.8    L288.4,196.7 L290.1,200.2 L291.7,204.0 L293.3,208.4 L295.0,213.3 L296.6,218.4 L298.3,222.8 L299.9,226.9    L301.5,231.0 L303.2,234.8 L304.8,238.0 L306.4,240.8 L308.1,244.0 L309.7,247.3 L311.4,250.8 L313.0,255.4    L314.6,259.4 L316.3,263.4 L317.9,266.9 L319.5,269.6 L321.2,271.8 L322.8,273.4 L324.5,275.1 L326.1,276.7    L327.7,277.4 L329.4,279.0 L331.0,280.8 L332.6,282.7 L334.3,285.0 L335.9,287.8 L337.5,290.4 L339.2,293.4    L340.8,296.7 L342.5,300.0 L344.1,302.9 L345.7,305.3 L347.4,307.1 L349.0,308.5 L350.6,311.7 L352.3,315.1    L353.9,319.5 L355.6,324.4 L357.2,329.3 L358.8,334.2 L360.5,338.5 L362.1,342.6 L363.7,346.8 L365.4,350.3    L367.0,353.7 L368.7,356.3 L370.3,358.4 L371.9,360.7 L373.6,363.5 L375.2,366.5 L376.8,369.6 L378.5,372.9    L380.1,376.2 L381.7,379.4 L383.4,382.9 L385.0,386.9 L386.7,391.1 L388.3,394.5 L389.9,398.2 L391.6,401.8    L393.2,405.4 L394.8,410.4 L396.5,415.4 L398.1,420.1 L399.8,424.7 L401.4,429.6 L403.0,434.8 L404.7,439.4    L406.3,443.8 L407.9,448.4 L409.6,452.9 L411.2,458.3 L412.9,463.5 L414.5,468.9 L416.1,475.4 L417.8,482.1    L419.4,488.2 L421.0,493.9 L422.7,499.4 L424.3,504.7 L425.9,509.6 L427.6,514.5 L429.2,519.2 L430.9,523.5    L432.5,527.0 L434.1,529.6 L435.8,532.9 L437.4,536.9 L439.0,541.1 L440.7,545.1 L442.3,549.4 L444.0,553.7    L445.6,557.9 L447.2,562.5 L448.9,567.5 L450.5,572.2 L452.1,576.8 L453.8,581.7 L455.4,585.3 L457.1,589.9    L458.7,594.9 L460.3,600.0 L462.0,604.8 L463.6,609.4 L465.2,613.9 L466.9,618.3 L468.5,622.1 L470.1,625.3    L471.8,628.3 L473.4,630.6 L475.1,632.2 L476.7,633.8 L478.3,636.4 L480.0,639.2 L481.6,642.1 L483.2,644.9    L484.9,646.9 L486.5,648.5 L488.2,649.6 L489.8,650.3 L491.4,650.5 L493.1,650.3 L494.7,650.1 L496.3,649.1    L498.0,647.0 L499.6,645.5 L501.3,643.9 L502.9,642.3 L504.5,640.4 L506.2,638.1 L507.8,635.9 L509.4,633.8    L511.1,631.9 L512.7,630.0 L514.3,628.7 L516.0,627.4 L517.6,625.5 L519.3,623.7 L520.9,623.6 L522.5,623.6    L524.2,623.5 L525.8,623.8 L527.4,624.4 L529.1,624.7 L530.7,624.5 L532.4,624.4 L534.0,624.3 L535.6,624.2    L537.3,623.1 L538.9,620.9 L540.5,618.9 L542.2,617.8 L543.8,616.2 L545.5,614.3 L547.1,612.7 L548.7,611.6    L550.4,611.2 L552.0,610.6 L553.6,609.4 L555.3,608.2 L556.9,607.3 L558.5,606.8 L560.2,606.1 L561.8,606.1    L563.5,606.5 L565.1,606.8 L566.7,607.4 L568.4,607.6 L570.0,607.3 L571.6,606.6 L573.3,605.7 L574.9,604.1    L576.6,603.0 L578.2,601.5 L579.8,598.8 L581.5,595.1 L583.1,591.7 L584.7,588.4 L586.4,585.2 L588.0,582.7    L589.7,579.5 L591.3,577.1 L592.9,575.1 L594.6,573.1 L596.2,571.6 L597.8,570.5 L599.5,569.9 L601.1,569.5    L602.7,568.5 L604.4,567.6 L606.0,567.3 L607.7,567.3 L609.3,567.2 L610.9,566.8 L612.6,566.5 L614.2,566.4    L615.8,566.4 L617.5,566.2 L619.1,566.1 L620.8,566.0 L622.4,565.7 L624.0,565.1 L625.7,564.1 L627.3,563.7    L628.9,563.1 L630.6,562.3 L632.2,561.1 L633.9,560.1 L635.5,559.6 L637.1,559.3 L638.8,559.0 L640.4,558.7    L642.0,558.1 L643.7,557.2 L645.3,556.1 L646.9,554.8 L648.6,553.6 L650.2,552.2 L651.9,550.9 L653.5,549.8    L655.1,548.8 L656.8,547.8 L658.4,547.6 L660.0,547.7 L661.7,547.8 L663.3,548.0 L665.0,548.8 L666.6,549.8    L668.2,551.2 L669.9,553.1 L671.5,555.1 L673.1,557.5 L674.8,560.0 L676.4,562.6 L678.0,565.0 L679.7,567.4    L681.3,569.8 L683.0,572.1 L684.6,574.1 L686.2,576.8 L687.9,578.6 L689.5,579.8 L691.1,580.9 L692.8,581.7    L694.4,582.4 L696.1,583.0 L697.7,583.6 L699.3,583.9 L701.0,584.4 L702.6,584.8 L704.2,585.2 L705.9,585.7    L707.5,586.7 L709.2,586.5 L710.8,586.2 L712.4,585.8 L714.1,585.2 L715.7,584.5 L717.3,583.8 L719.0,582.8    L720.6,581.7 L722.2,580.7 L723.9,578.6 L725.5,576.2 L727.2,573.9 L728.8,572.2 L730.4,569.5 L732.1,566.7    L733.7,563.8 L735.3,561.0 L737.0,559.1 L738.6,557.1 L740.3,555.3 L741.9,553.9 L743.5,552.8 L745.2,552.1    L746.8,551.4 L748.4,551.3 L750.1,551.7 L751.7,552.1 L753.4,552.3 L755.0,553.0 L756.6,553.7 L758.3,553.9    L759.9,554.2 L761.5,554.4 L763.2,553.9 L764.8,553.1 L766.4,552.8 L768.1,552.4 L769.7,552.3 L771.4,552.3    L773.0,552.1 L774.6,552.2 L776.3,552.5 L777.9,553.0 L779.5,553.5 L781.2,553.8 L782.8,554.2 L784.5,555.3    L786.1,556.2 L787.7,556.5 L789.4,556.9 L791.0,557.1 L792.6,557.0 L794.3,556.7 L795.9,556.4 L797.6,555.9    L799.2,555.2 L800.8,554.5 L802.5,554.0 L804.1,553.8 L805.7,554.0 L807.4,554.2 L809.0,554.4 L810.6,554.9    L812.3,555.8 L813.9,556.2 L815.6,556.5 L817.2,556.7 L818.8,556.6 L820.5,556.6 L822.1,556.3 L823.7,555.7    L825.4,554.4 L827.0,553.0 L828.7,551.4 L830.3,548.9 L831.9,545.9 L833.6,542.8 L835.2,538.7 L836.8,534.1    L838.5,529.5 L840.1,525.4 L841.8,521.8 L843.4,518.7 L845.0,516.2 L846.7,514.2 L848.3,512.2 L849.9,510.6    L851.6,509.8 L853.2,509.6 L854.8,509.8 L856.5,509.1 L858.1,509.5 L859.8,509.6 L861.4,509.2 L863.0,508.9    L864.7,508.2 L866.3,507.5 L867.9,506.8 L869.6,506.0 L871.2,505.4 L872.9,505.1 L874.5,505.1 L876.1,505.3    L877.8,505.5 L879.4,506.0 L881.0,507.1 L882.7,508.4 L884.3,510.0 L886.0,511.8 L887.6,513.0 L889.2,514.3    L890.9,515.7 L892.5,517.3 L894.1,518.6 L895.8,520.2 L897.4,521.7 L899.0,523.0 L900.7,524.0 L902.3,524.8    "
       id="path10294" />
  </g>
  <g
     style="fill:none; color:black; stroke:currentColor; stroke-width:1.00; stroke-linecap:butt; stroke-linejoin:miter"
     id="g10296">
    <path
       d="M80.2,54.0 L80.2,652.4 L919.7,652.4 L919.7,54.0 L80.2,54.0 Z "
       id="path10298" />
  </g>
</svg>
